<?xml version="1.0" standalone="no"?><!DOCTYPE svg PUBLIC "-//W3C//DTD SVG 1.1//EN" "http://www.w3.org/Graphics/SVG/1.1/DTD/svg11.dtd"><svg t="1562750272491" class="icon" viewBox="0 0 1024 1024" version="1.1" xmlns="http://www.w3.org/2000/svg" p-id="13560" width="22" height="22" xmlns:xlink="http://www.w3.org/1999/xlink"><defs><style type="text/css"></style></defs><path d="M547.6608 238.6432c-7.2448-6.656-16.5632-9.984-28.0064-9.984-12.5952 0-22.7584 3.6864-30.4384 11.0336s-11.5456 17.3312-11.5456 29.9264c0 11.904 3.6864 21.4784 11.0336 28.6976s16.8448 10.8544 28.5184 10.8544c12.1344 0 22.0416-3.8912 29.7472-11.7248s11.5456-17.8944 11.5456-30.2848-3.6352-21.8624-10.8544-28.5184z m-105.7024 188.8256l46.5408 12.5952c0.9216 25.9072 1.408 54.1184 1.408 84.7104v116.8896c0 21.4784-0.256 36.7616-0.6912 45.8496-0.4864 5.376-3.4048 8.9856-8.7552 10.8544l-40.6016 11.904 1.408 14.3616c31.488-0.6912 58.752-1.0496 81.7408-1.0496 22.9376 0 50.56 0.3584 82.7392 1.0496l-0.6912-14.3616-40.6016-11.904c-5.376-1.8688-8.2944-5.9392-8.7552-12.2624a1546.496 1546.496 0 0 1-0.6912-58.112v-134.4c0-36.4032 0.6912-69.7856 2.0992-100.096l-3.1488-2.4576a2100.224 2100.224 0 0 1-113.7408 24.4992l1.7408 11.9296z" fill="#8a8a8a" p-id="13561"></path><path d="M512 953.6c-239.9744 0-435.2-195.2256-435.2-435.2s195.2256-435.2 435.2-435.2 435.2 195.2256 435.2 435.2-195.2256 435.2-435.2 435.2z m0-819.2c-211.7376 0-384 172.2624-384 384s172.2624 384 384 384 384-172.2624 384-384-172.2624-384-384-384z" fill="#8a8a8a" p-id="13562"></path></svg>